<svg width="23" height="23" viewBox="0 0 23 23" fill="none" xmlns="http://www.w3.org/2000/svg">
<path d="M12.4582 16.3382V17.2501H13.4165C14.475 17.2501 15.3332 18.1082 15.3332 19.1668H7.6665C7.6665 18.1082 8.52462 17.2501 9.58317 17.2501H10.5415V16.338C6.61085 15.9013 3.43724 12.8122 2.94724 8.83631C2.8825 8.31101 3.25585 7.83269 3.78115 7.76795C4.30645 7.70321 4.78477 8.07657 4.84951 8.60187C5.26076 11.9388 8.10781 14.4743 11.5006 14.4743C14.9284 14.4743 17.7944 11.8876 18.1626 8.50792C18.22 7.98176 18.693 7.60171 19.2191 7.65904C19.7453 7.71638 20.1254 8.18939 20.068 8.71555C19.6288 12.746 16.4325 15.8975 12.4582 16.3382Z" fill="white"/>
<path opacity="0.4" d="M11.4935 1C7.9055 1 5 3.912 5 7.5C5 11.088 7.9055 14 11.4935 14C15.088 14 18 11.088 18 7.5C18 3.912 15.088 1 11.4935 1ZM15.998 4.9H14.0805C13.8725 4.0875 13.5735 3.3075 13.1835 2.586C14.3795 2.9955 15.374 3.8275 15.998 4.9ZM11.5 2.326C12.0395 3.106 12.462 3.9705 12.7415 4.9H10.2585C10.538 3.9705 10.9605 3.106 11.5 2.326ZM6.469 8.8C6.365 8.384 6.3 7.9485 6.3 7.5C6.3 7.0515 6.365 6.616 6.469 6.2H8.666C8.614 6.629 8.575 7.058 8.575 7.5C8.575 7.942 8.614 8.371 8.666 8.8H6.469ZM7.002 10.1H8.9195C9.1275 10.9125 9.4265 11.6925 9.8165 12.414C8.6205 12.0045 7.626 11.179 7.002 10.1V10.1ZM8.9195 4.9H7.002C7.626 3.821 8.6205 2.9955 9.8165 2.586C9.4265 3.3075 9.1275 4.0875 8.9195 4.9V4.9ZM11.5 12.674C10.9605 11.894 10.538 11.0295 10.2585 10.1H12.7415C12.462 11.0295 12.0395 11.894 11.5 12.674ZM13.021 8.8H9.979C9.9205 8.371 9.875 7.942 9.875 7.5C9.875 7.058 9.9205 6.6225 9.979 6.2H13.021C13.0795 6.6225 13.125 7.058 13.125 7.5C13.125 7.942 13.0795 8.371 13.021 8.8ZM13.1835 12.414C13.5735 11.6925 13.8725 10.9125 14.0805 10.1H15.998C15.374 11.1725 14.3795 12.0045 13.1835 12.414V12.414ZM14.334 8.8C14.386 8.371 14.425 7.942 14.425 7.5C14.425 7.058 14.386 6.629 14.334 6.2H16.531C16.635 6.616 16.7 7.0515 16.7 7.5C16.7 7.9485 16.635 8.384 16.531 8.8H14.334Z" fill="white"/>
</svg>
