<svg width="23" height="24" viewBox="0 0 23 24" fill="none" xmlns="http://www.w3.org/2000/svg">
<path fill-rule="evenodd" clip-rule="evenodd" d="M3.8335 13.9167L3.8335 3.375C3.8335 2.84573 4.26256 2.41667 4.79183 2.41667H6.7085C7.23777 2.41667 7.66683 2.84573 7.66683 3.375L7.66683 13.9167C7.66683 14.4459 7.23777 14.875 6.7085 14.875H4.79183C4.26256 14.875 3.8335 14.4459 3.8335 13.9167ZM9.5835 13.9167L9.5835 3.375C9.5835 2.84573 10.0126 2.41667 10.5418 2.41667H12.4585C12.9878 2.41667 13.4168 2.84573 13.4168 3.375L13.4168 13.9167C13.4168 14.4459 12.9878 14.875 12.4585 14.875H10.5418C10.0126 14.875 9.5835 14.4459 9.5835 13.9167ZM15.3335 13.9167L15.3335 3.375C15.3335 2.84573 15.7626 2.41667 16.2918 2.41667H18.2085C18.7378 2.41667 19.1668 2.84573 19.1668 3.375V13.9167C19.1668 14.4459 18.7378 14.875 18.2085 14.875H16.2918C15.7626 14.875 15.3335 14.4459 15.3335 13.9167Z" fill="#F0E8C0"/>
<path opacity="0.4" d="M3.8335 17.7502L3.8335 20.6252C3.8335 21.1544 4.26256 21.5835 4.79183 21.5835L18.2085 21.5835C18.7378 21.5835 19.1668 21.1544 19.1668 20.6252V17.7502C19.1668 17.2209 18.7378 16.7918 18.2085 16.7918L4.79183 16.7918C4.26256 16.7918 3.8335 17.2209 3.8335 17.7502Z" fill="#F0E8C0"/>
</svg>
