<svg width="23" height="23" viewBox="0 0 23 23" fill="none" xmlns="http://www.w3.org/2000/svg">
<path d="M2.02246 12.6328C2.02246 12.1758 2.47949 11.7188 2.93652 11.7188C3.39355 11.7188 3.85059 12.1758 3.85059 12.6328C3.85059 12.9375 3.85059 14.4609 3.85059 17.2031C3.85059 18.2128 4.66907 19.0312 5.67871 19.0312H16.6475C17.6571 19.0312 18.4756 18.2128 18.4756 17.2031V12.6328C18.4756 12.128 18.8848 11.7188 19.3897 11.7188C19.8945 11.7188 20.3037 12.128 20.3037 12.6328V17.2031C20.3037 19.2224 18.6668 20.8594 16.6475 20.8594H5.67871C3.65942 20.8594 2.02246 19.2224 2.02246 17.2031C2.02246 14.4609 2.02246 12.9375 2.02246 12.6328Z" fill="white"/>
<path d="M12.0771 3.49219C12.0771 2.98736 11.6679 2.57812 11.1631 2.57812C10.6583 2.57812 10.249 2.98736 10.249 3.49219V14.4609C10.249 14.9658 10.6583 15.375 11.1631 15.375C11.6679 15.375 12.0771 14.9658 12.0771 14.4609V3.49219Z" fill="white"/>
<path d="M11.1962 3.83768L7.23911 7.79478C6.88215 8.15174 6.3034 8.15174 5.94643 7.79478C5.58947 7.43782 5.58947 6.85906 5.94643 6.5021L10.5167 1.93179C10.8605 1.58802 11.4132 1.57349 11.7746 1.89871L16.3449 6.01199C16.7201 6.3497 16.7505 6.92765 16.4128 7.30288C16.0751 7.67812 15.4972 7.70853 15.1219 7.37083L11.1962 3.83768Z" fill="white"/>
</svg>
