<svg width="26" height="26" viewBox="0 0 26 26" fill="none" xmlns="http://www.w3.org/2000/svg">
<path d="M13.7662 7.26587C14.1893 6.8428 14.1893 6.15687 13.7662 5.7338C13.3431 5.31074 12.6572 5.31074 12.2341 5.7338L5.73413 12.2338C5.324 12.6439 5.30965 13.3043 5.70158 13.7319L11.6599 20.2319C12.0642 20.6729 12.7495 20.7027 13.1905 20.2984C13.6316 19.8941 13.6614 19.2088 13.2571 18.7678L7.99964 13.0324L13.7662 7.26587Z" fill="white"/>
<path opacity="0.5" d="M21.3494 7.26587C21.7724 6.8428 21.7724 6.15687 21.3494 5.7338C20.9263 5.31074 20.2404 5.31074 19.8173 5.7338L13.3173 12.2338C12.9072 12.6439 12.8928 13.3043 13.2848 13.7319L19.2431 20.2319C19.6474 20.6729 20.3327 20.7027 20.7737 20.2984C21.2148 19.8941 21.2445 19.2088 20.8403 18.7678L15.5828 13.0324L21.3494 7.26587Z" fill="#EDEDED"/>
</svg>
