<svg width="24" height="25" viewBox="0 0 24 25" fill="none" xmlns="http://www.w3.org/2000/svg">
<path opacity="0.4" fill-rule="evenodd" clip-rule="evenodd" d="M4.5 7.5H9.5C10.3284 7.5 11 8.17157 11 9C11 9.82843 10.3284 10.5 9.5 10.5H4.5C3.67157 10.5 3 9.82843 3 9C3 8.17157 3.67157 7.5 4.5 7.5ZM13.5 15.5H18.5C19.3284 15.5 20 16.1716 20 17C20 17.8284 19.3284 18.5 18.5 18.5H13.5C12.6716 18.5 12 17.8284 12 17C12 16.1716 12.6716 15.5 13.5 15.5Z" fill="#F0E8C0"/>
<path fill-rule="evenodd" clip-rule="evenodd" d="M17 11.5C15.3431 11.5 14 10.1569 14 8.5C14 6.84315 15.3431 5.5 17 5.5C18.6569 5.5 20 6.84315 20 8.5C20 10.1569 18.6569 11.5 17 11.5ZM6 19.5C4.34315 19.5 3 18.1569 3 16.5C3 14.8431 4.34315 13.5 6 13.5C7.65685 13.5 9 14.8431 9 16.5C9 18.1569 7.65685 19.5 6 19.5Z" fill="#F0E8C0"/>
</svg>
