<svg width="24" height="24" viewBox="0 0 24 24" fill="none" xmlns="http://www.w3.org/2000/svg">
<path opacity="0.4" fill-rule="evenodd" clip-rule="evenodd" d="M18.5 8C17.1193 8 16 6.88071 16 5.5C16 4.11929 17.1193 3 18.5 3C19.8807 3 21 4.11929 21 5.5C21 6.88071 19.8807 8 18.5 8ZM18.5 21C17.1193 21 16 19.8807 16 18.5C16 17.1193 17.1193 16 18.5 16C19.8807 16 21 17.1193 21 18.5C21 19.8807 19.8807 21 18.5 21ZM5.5 21C4.11929 21 3 19.8807 3 18.5C3 17.1193 4.11929 16 5.5 16C6.88071 16 8 17.1193 8 18.5C8 19.8807 6.88071 21 5.5 21Z" fill="white"/>
<path fill-rule="evenodd" clip-rule="evenodd" d="M5.5 8C4.11929 8 3 6.88071 3 5.5C3 4.11929 4.11929 3 5.5 3C6.88071 3 8 4.11929 8 5.5C8 6.88071 6.88071 8 5.5 8ZM11 4H13C13.5523 4 14 4.44772 14 5C14 5.55228 13.5523 6 13 6H11C10.4477 6 10 5.55228 10 5C10 4.44772 10.4477 4 11 4ZM11 18H13C13.5523 18 14 18.4477 14 19C14 19.5523 13.5523 20 13 20H11C10.4477 20 10 19.5523 10 19C10 18.4477 10.4477 18 11 18ZM5 10C5.55228 10 6 10.4477 6 11V13C6 13.5523 5.55228 14 5 14C4.44772 14 4 13.5523 4 13V11C4 10.4477 4.44772 10 5 10ZM19 10C19.5523 10 20 10.4477 20 11V13C20 13.5523 19.5523 14 19 14C18.4477 14 18 13.5523 18 13V11C18 10.4477 18.4477 10 19 10Z" fill="white"/>
</svg>
