<svg width="24" height="25" viewBox="0 0 24 25" fill="none" xmlns="http://www.w3.org/2000/svg">
<path opacity="0.4" fill-rule="evenodd" clip-rule="evenodd" d="M18.5 8.5C17.1193 8.5 16 7.38071 16 6C16 4.61929 17.1193 3.5 18.5 3.5C19.8807 3.5 21 4.61929 21 6C21 7.38071 19.8807 8.5 18.5 8.5ZM18.5 21.5C17.1193 21.5 16 20.3807 16 19C16 17.6193 17.1193 16.5 18.5 16.5C19.8807 16.5 21 17.6193 21 19C21 20.3807 19.8807 21.5 18.5 21.5ZM5.5 21.5C4.11929 21.5 3 20.3807 3 19C3 17.6193 4.11929 16.5 5.5 16.5C6.88071 16.5 8 17.6193 8 19C8 20.3807 6.88071 21.5 5.5 21.5Z" fill="#F0E8C0"/>
<path fill-rule="evenodd" clip-rule="evenodd" d="M5.5 8.5C4.11929 8.5 3 7.38071 3 6C3 4.61929 4.11929 3.5 5.5 3.5C6.88071 3.5 8 4.61929 8 6C8 7.38071 6.88071 8.5 5.5 8.5ZM11 4.5H13C13.5523 4.5 14 4.94772 14 5.5C14 6.05228 13.5523 6.5 13 6.5H11C10.4477 6.5 10 6.05228 10 5.5C10 4.94772 10.4477 4.5 11 4.5ZM11 18.5H13C13.5523 18.5 14 18.9477 14 19.5C14 20.0523 13.5523 20.5 13 20.5H11C10.4477 20.5 10 20.0523 10 19.5C10 18.9477 10.4477 18.5 11 18.5ZM5 10.5C5.55228 10.5 6 10.9477 6 11.5V13.5C6 14.0523 5.55228 14.5 5 14.5C4.44772 14.5 4 14.0523 4 13.5V11.5C4 10.9477 4.44772 10.5 5 10.5ZM19 10.5C19.5523 10.5 20 10.9477 20 11.5V13.5C20 14.0523 19.5523 14.5 19 14.5C18.4477 14.5 18 14.0523 18 13.5V11.5C18 10.9477 18.4477 10.5 19 10.5Z" fill="#F0E8C0"/>
</svg>
