<svg width="12" height="14" viewBox="0 0 12 14" fill="none" xmlns="http://www.w3.org/2000/svg">
<path fill-rule="evenodd" clip-rule="evenodd" d="M0.735294 12.5263H11.0294C11.2244 12.5263 11.4114 12.6039 11.5493 12.7421C11.6872 12.8803 11.7647 13.0677 11.7647 13.2632C11.7647 13.4586 11.6872 13.646 11.5493 13.7842C11.4114 13.9224 11.2244 14 11.0294 14H0.735294C0.540282 14 0.353257 13.9224 0.215363 13.7842C0.0774684 13.646 0 13.4586 0 13.2632C0 13.0677 0.0774684 12.8803 0.215363 12.7421C0.353257 12.6039 0.540282 12.5263 0.735294 12.5263ZM6.61765 8.23421L8.48122 6.36729C8.76879 6.07921 9.23559 6.07924 9.52311 6.36737V6.36737C9.80981 6.65468 9.80981 7.11985 9.52311 7.40716L5.88235 11.0556L2.24159 7.40715C1.95489 7.11985 1.95489 6.65468 2.24159 6.36737V6.36737C2.52912 6.07924 2.99592 6.07921 3.28349 6.36729L5.14706 8.23421V0.735295C5.14706 0.329203 5.47626 0 5.88235 0V0C6.28844 0 6.61765 0.329202 6.61765 0.735294V8.23421Z" fill="white"/>
</svg>
