<svg width="20" height="21" viewBox="0 0 20 21" fill="none" xmlns="http://www.w3.org/2000/svg">
<path d="M12.8945 9C15.3945 9 17.3945 11 17.3945 13.5C17.3945 14.38 17.1445 15.21 16.7045 15.9L19.7845 19L18.3945 20.39L15.2745 17.32C14.5845 17.75 13.7645 18 12.8945 18C10.3945 18 8.39453 16 8.39453 13.5C8.39453 11 10.3945 9 12.8945 9ZM12.8945 11C12.2315 11 11.5956 11.2634 11.1268 11.7322C10.6579 12.2011 10.3945 12.837 10.3945 13.5C10.3945 14.163 10.6579 14.7989 11.1268 15.2678C11.5956 15.7366 12.2315 16 12.8945 16C13.5576 16 14.1935 15.7366 14.6623 15.2678C15.1311 14.7989 15.3945 14.163 15.3945 13.5C15.3945 12.837 15.1311 12.2011 14.6623 11.7322C14.1935 11.2634 13.5576 11 12.8945 11ZM2.39453 0H16.3945C17.5045 0 18.3945 0.89 18.3945 2V10.03C17.8945 9.23 17.2045 8.54 16.3945 8V2H2.39453V16H6.89453C7.20453 16.75 7.65453 17.42 8.20453 18H2.39453C1.28453 18 0.394531 17.11 0.394531 16V2C0.394531 0.89 1.28453 0 2.39453 0ZM4.39453 4H14.3945V6H4.39453V4ZM4.39453 8H9.42453C8.62453 8.5 7.93453 9.19 7.39453 10H4.39453V8ZM4.39453 12H6.56453C6.45453 12.5 6.39453 13 6.39453 13.5V14H4.39453V12Z" fill="black"/>
</svg>
