<svg width="19" height="19" viewBox="0 0 19 19" fill="none" xmlns="http://www.w3.org/2000/svg">
<path d="M18.5154 16.9296L14.2887 12.7029C15.3063 11.3482 15.8556 9.69931 15.8538 8.005C15.8538 3.67723 12.3328 0.15625 8.005 0.15625C3.67723 0.15625 0.15625 3.67723 0.15625 8.005C0.15625 12.3328 3.67723 15.8538 8.005 15.8538C9.69931 15.8556 11.3482 15.3063 12.7029 14.2887L16.9296 18.5154C17.1436 18.7066 17.4226 18.8087 17.7095 18.8007C17.9964 18.7927 18.2693 18.6751 18.4722 18.4722C18.6751 18.2693 18.7927 17.9964 18.8007 17.7095C18.8087 17.4226 18.7066 17.1436 18.5154 16.9296ZM2.39875 8.005C2.39875 6.89619 2.72755 5.81228 3.34357 4.89033C3.9596 3.96839 4.83517 3.24982 5.85958 2.8255C6.88399 2.40118 8.01122 2.29015 9.09873 2.50647C10.1862 2.72279 11.1852 3.25673 11.9692 4.04078C12.7533 4.82483 13.2872 5.82377 13.5035 6.91127C13.7198 7.99878 13.6088 9.12601 13.1845 10.1504C12.7602 11.1748 12.0416 12.0504 11.1197 12.6664C10.1977 13.2824 9.11381 13.6112 8.005 13.6112C6.51868 13.6095 5.09374 13.0182 4.04275 11.9672C2.99176 10.9163 2.40053 9.49132 2.39875 8.005Z" fill="#82005E"/>
</svg>
