<svg width="23" height="23" viewBox="0 0 23 23" fill="none" xmlns="http://www.w3.org/2000/svg">
<path opacity="0.4" d="M1.9165 12.4583C1.9165 11.9792 2.39567 11.5 2.87484 11.5C3.354 11.5 3.83317 11.9792 3.83317 12.4583C3.83317 12.7778 3.83317 14.375 3.83317 17.25C3.83317 18.3085 4.69129 19.1667 5.74984 19.1667H17.2498C18.3084 19.1667 19.1665 18.3085 19.1665 17.25V12.4583C19.1665 11.9291 19.5956 11.5 20.1248 11.5C20.6541 11.5 21.0832 11.9291 21.0832 12.4583V17.25C21.0832 19.3671 19.3669 21.0833 17.2498 21.0833H5.74984C3.63275 21.0833 1.9165 19.3671 1.9165 17.25C1.9165 14.375 1.9165 12.7778 1.9165 12.4583Z" fill="white"/>
<path d="M12.4582 2.87484C12.4582 2.34556 12.0291 1.9165 11.4998 1.9165C10.9706 1.9165 10.5415 2.34556 10.5415 2.87484V14.3748C10.5415 14.9041 10.9706 15.3332 11.4998 15.3332C12.0291 15.3332 12.4582 14.9041 12.4582 14.3748V2.87484Z" fill="white"/>
<path d="M11.5347 3.23739L7.38598 7.38614C7.01172 7.76039 6.40494 7.76039 6.03069 7.38614C5.65644 7.01189 5.65644 6.40511 6.03069 6.03085L10.8224 1.23919C11.1828 0.878776 11.7622 0.863537 12.1411 1.20451L16.9328 5.51701C17.3262 5.87107 17.3581 6.47702 17.004 6.87042C16.6499 7.26383 16.044 7.29572 15.6506 6.94165L11.5347 3.23739Z" fill="white"/>
</svg>
