<svg width="24" height="23" viewBox="0 0 24 23" fill="none" xmlns="http://www.w3.org/2000/svg">
<path opacity="0.4" d="M2.31152 12.4583C2.31152 11.9792 2.79069 11.5 3.26986 11.5C3.74902 11.5 4.22819 11.9792 4.22819 12.4583C4.22819 12.7778 4.22819 14.375 4.22819 17.25C4.22819 18.3085 5.08631 19.1667 6.14486 19.1667H17.6449C18.7034 19.1667 19.5615 18.3085 19.5615 17.25V12.4583C19.5615 11.9291 19.9906 11.5 20.5199 11.5C21.0491 11.5 21.4782 11.9291 21.4782 12.4583V17.25C21.4782 19.3671 19.7619 21.0833 17.6449 21.0833H6.14486C4.02777 21.0833 2.31152 19.3671 2.31152 17.25C2.31152 14.375 2.31152 12.7778 2.31152 12.4583Z" fill="white"/>
<path d="M12.8532 2.87484C12.8532 2.34556 12.4241 1.9165 11.8949 1.9165C11.3656 1.9165 10.9365 2.34556 10.9365 2.87484V14.3748C10.9365 14.9041 11.3656 15.3332 11.8949 15.3332C12.4241 15.3332 12.8532 14.9041 12.8532 14.3748V2.87484Z" fill="#F0E8C0"/>
<path d="M11.9293 3.23739L7.78051 7.38614C7.40626 7.76039 6.79947 7.76039 6.42522 7.38614C6.05097 7.01189 6.05097 6.40511 6.42522 6.03085L11.2169 1.23919C11.5773 0.878776 12.1568 0.863537 12.5356 1.20451L17.3273 5.51701C17.7207 5.87107 17.7526 6.47702 17.3985 6.87042C17.0445 7.26383 16.4385 7.29572 16.0451 6.94165L11.9293 3.23739Z" fill="#F0E8C0"/>
</svg>
