<svg width="118" height="45" viewBox="0 0 118 45" fill="none" xmlns="http://www.w3.org/2000/svg">
<path d="M68.6957 14H51.2012C50.3078 19.0806 48.7444 27.7177 48 31.9274H55.4445C56.0401 28.7339 57.6034 20.0242 58.2734 16.25H63.8568C66.1646 16.25 67.8768 17.7742 67.5046 20.4597C67.1324 22.5645 66.239 27.5726 65.4201 32H72.8646C73.3858 29.0242 74.428 23.2903 74.8747 20.6048C75.5447 16.8306 73.5347 14 68.6957 14Z" fill="white"/>
<path d="M30.0336 19.3202C30.3917 18.2687 31.0053 17.3327 31.8142 16.6041C32.6231 15.8756 33.5994 15.3796 34.6471 15.1649C35.7268 14.9314 36.843 14.9568 37.912 15.2391C39.8283 15.6843 40.3962 17.9846 39.5445 19.7654C38.6218 21.7688 37.3442 22.214 35.7117 22.585C33.5073 22.9707 31.2634 23.0456 29.0399 22.8076C29.2661 21.6152 29.5988 20.4476 30.0336 19.3202ZM31.4531 29.4857C28.1882 28.8921 28.756 24.811 28.756 24.811C31.7759 25.1453 34.8211 25.1453 37.841 24.811C40.0413 24.5884 44.2999 23.9948 45.5065 20.5074C46.7131 17.0199 45.7904 14.2003 41.8157 13.4583C38.7437 12.8733 35.598 12.8482 32.5178 13.3841C27.4075 14.1261 24.5684 15.9069 23.3618 19.0976C22.6614 20.9234 22.2306 22.8499 22.0842 24.811C21.7294 28.2243 22.3682 31.415 26.4848 31.7118C31.308 32.1949 36.1692 32.0703 40.964 31.3408L42.3835 29.1889C38.7716 29.8256 35.0918 29.9255 31.4531 29.4857Z" fill="white"/>
<path d="M101.368 19.3202C101.741 18.2687 102.381 17.3327 103.223 16.6041C104.066 15.8756 105.083 15.3796 106.174 15.1649C107.299 14.9314 108.461 14.9568 109.575 15.2391C111.571 15.6843 112.163 17.9846 111.275 19.7654C110.314 21.7688 108.984 22.214 107.283 22.585C104.987 22.9707 102.649 23.0456 100.333 22.8076C100.603 21.624 100.949 20.4591 101.368 19.3202ZM102.847 29.4857C99.4461 28.8921 100.037 24.811 100.037 24.811C103.183 25.1453 106.355 25.1453 109.501 24.811C111.793 24.5884 116.229 23.9948 117.486 20.5074C118.743 17.0199 117.782 14.2003 113.641 13.4583C110.441 12.8733 107.165 12.8482 103.956 13.3841C98.6328 14.1261 95.6754 15.9069 94.4185 19.0976C93.6889 20.9234 93.2402 22.8499 93.0878 24.811C92.7181 28.2243 93.3835 31.415 97.6717 31.7118C102.696 32.1949 107.76 32.0703 112.754 31.3408L114.233 29.1889C110.47 29.8256 106.637 29.9255 102.847 29.4857Z" fill="white"/>
<path d="M9.44905 19.5802C9.8153 17.3083 10.621 15.9452 13.0382 15.4908C15.1624 15.1121 19.1911 15.3393 21.4618 15.6422L23 13.2946C19.4841 13.0674 13.4777 12.7645 9.96176 13.2946C4.90762 14.0519 2.85667 15.1121 2.27068 18.4443C1.90444 20.4132 0.43949 29.5009 0 32H7.32483C7.83757 29.0465 9.08281 21.7007 9.44905 19.5802Z" fill="white"/>
<path d="M87.8038 2.50119C83.6104 5.41452 82.2126 8.91051 81.4769 13.2805L78.3869 30.9062C77.6512 34.912 77.357 37.0241 76.6948 38.9906C76.1063 40.6658 74.3406 43.0693 71.3242 43.0693L70 44.963C73.2606 45.1962 76.5041 44.3228 79.1962 42.4866C83.3896 39.5733 84.9346 35.4218 85.6703 31.1247C85.7439 30.8333 87.0681 23.113 87.7303 19.4713C88.1717 16.8493 89.5695 15.4655 92.4387 15.3927L93.7629 13.499H88.7602C89.4959 9.49316 89.7166 7.74517 90.3052 5.99718C90.8938 4.24918 92.6594 1.91851 95.6758 1.91851L97 0.0248392C93.7441 -0.161834 90.5156 0.707564 87.8038 2.50119Z" fill="white"/>
</svg>
